# xmcd
#
# Track frame offsets:
# 150
# 16390
# 33641
# 55319
# 76388
# 97065
# 115592
# 134416
# 149027
# 168498
# 184222
# 207215
# 245548
# 269407
#
# Disc length: 3805 seconds
#
# Revision: 0
# Processed by: cddbd v1.5.1PL2 Copyright (c) Steve Scherf et al.
# Submitted via: Audion 2.5.0 (http://www.panic.com/audion/)
#
DISCID=d10edb0e
DTITLE=001 - Jet
DYEAR=1900
DGENRE=
TTITLE0=01 - Cat Stevens - Father and Son
TTITLE1=02 - Chicago - If You Leave Me Now
TTITLE2=03 - Tanita Tikaram - Twist in my Sobriety
TTITLE3=04 - Emerson Like and Palmer - Lucky Man
TTITLE4=05 - George Harrison - My Sweet Lord
TTITLE5=06 - Paul Mcartney and Wings - Jet
TTITLE6=07 - David Bowie - Starman
TTITLE7=08 - David Bowie - Ziggy Stardust
TTITLE8=09 - Peter Gabriel - Solsbury Hill
TTITLE9=10 - Mott The Hoople - All the Young Dudes
TTITLE10=11 - Guess Who - American Woman
TTITLE11=12 - Bob Dylan - Hurricane
TTITLE12=13 - Frank Zappa - Joe Garage
TTITLE13=14 - Bhacman Turner Overdrive - You Ain't Seen Nothin' Yet
EXTD=
EXTT0=
EXTT1=
EXTT2=
EXTT3=
EXTT4=
EXTT5=
EXTT6=
EXTT7=
EXTT8=
EXTT9=
EXTT10=
EXTT11=
EXTT12=
EXTT13=
PLAYORDER=
